<svg xmlns="http://www.w3.org/2000/svg" width="20.605" height="20.605" viewBox="0 0 20.605 20.605">
  <defs>
    <style>
      .cls-1 {
        fill: #021668;
      }
    </style>
  </defs>
  <path id="facebook" class="cls-1" d="M17.587,0H3.018A3.022,3.022,0,0,0,0,3.018V17.587a3.022,3.022,0,0,0,3.018,3.018H9.1V13.321H6.681V9.7H9.1V7.244a3.626,3.626,0,0,1,3.622-3.622H16.38V7.244H12.717V9.7H16.38l-.6,3.622H12.717v7.284h4.87a3.022,3.022,0,0,0,3.018-3.018V3.018A3.022,3.022,0,0,0,17.587,0Zm0,0"/>
</svg>
