<svg id="instagram_1_" data-name="instagram (1)" xmlns="http://www.w3.org/2000/svg" width="20.605" height="20.605" viewBox="0 0 20.605 20.605">
  <defs>
    <style>
      .cls-1 {
        fill: #021668;
      }
    </style>
  </defs>
  <path id="Path_37823" data-name="Path 37823" class="cls-1" d="M214.622,212.811A1.811,1.811,0,1,1,212.811,211,1.811,1.811,0,0,1,214.622,212.811Zm0,0" transform="translate(-202.508 -202.508)"/>
  <path id="Path_37824" data-name="Path 37824" class="cls-1" d="M128.532,120h-6.117A2.417,2.417,0,0,0,120,122.415v6.117a2.417,2.417,0,0,0,2.415,2.415h6.117a2.417,2.417,0,0,0,2.415-2.415v-6.117A2.417,2.417,0,0,0,128.532,120Zm-3.059,8.492a3.018,3.018,0,1,1,3.018-3.018A3.022,3.022,0,0,1,125.473,128.492Zm3.461-5.876a.6.6,0,1,1,.6-.6A.6.6,0,0,1,128.934,122.616Zm0,0" transform="translate(-115.171 -115.171)"/>
  <path id="Path_37825" data-name="Path 37825" class="cls-1" d="M15.172,0H5.433A5.439,5.439,0,0,0,0,5.433v9.739a5.439,5.439,0,0,0,5.433,5.433h9.739a5.439,5.439,0,0,0,5.433-5.433V5.433A5.439,5.439,0,0,0,15.172,0Zm1.811,13.361a3.626,3.626,0,0,1-3.622,3.622H7.244a3.626,3.626,0,0,1-3.622-3.622V7.244A3.626,3.626,0,0,1,7.244,3.622h6.117a3.626,3.626,0,0,1,3.622,3.622Zm0,0" transform="translate(0)"/>
</svg>
