<svg id="Component_15_1" data-name="Component 15 – 1" xmlns="http://www.w3.org/2000/svg" width="199.224" height="33.554" viewBox="0 0 199.224 33.554">
  <defs>
    <style>
      .cls-1 {
        fill: #fff;
      }

      .cls-2 {
        fill: #021668;
      }

      .cls-3 {
        fill: #07f;
      }

      .cls-4 {
        fill: #01e7ff;
      }

      .cls-5, .cls-6, .cls-7 {
        stroke: none;
      }

      .cls-6 {
        fill: #07f;
      }

      .cls-7 {
        fill: #01e7ff;
      }
    </style>
  </defs>
  <g id="Group_38347" data-name="Group 38347" transform="translate(-159.972 -64.704)">
    <g id="Path_37891" data-name="Path 37891" class="cls-1" transform="translate(351.614 75.768) rotate(31)">
      <path class="cls-5" d="M0,0H.389l-.1,2.216-.149.005Z"/>
      <path class="cls-6" d="M -2.026557922363281e-06 3.337860107421875e-06 L 0.3886979520320892 3.337860107421875e-06 L 0.2912179529666901 2.21557354927063 L 0.1422379612922668 2.220823526382446 L -2.026557922363281e-06 3.337860107421875e-06 Z"/>
    </g>
    <g id="Path_37894" data-name="Path 37894" class="cls-1" transform="translate(348.769 73.696) rotate(-14)">
      <path class="cls-5" d="M0,0H.753L.564,4.293.276,4.3Z"/>
      <path class="cls-7" d="M 0.7531359195709229 -4.291534423828125e-06 L 0.5642558932304382 4.29286527633667 L 0.2755959033966064 4.303055286407471 L -4.112720489501953e-06 5.7220458984375e-06 L 0.7531359195709229 -4.291534423828125e-06 Z"/>
    </g>
    <g id="Path_37892" data-name="Path 37892" class="cls-1" transform="translate(357.333 79.752) rotate(75)">
      <path class="cls-5" d="M0,0H.789l-.2,4.5L.32,4.54Z"/>
      <path class="cls-7" d="M 1.609325408935547e-06 -2.384185791015625e-06 L 0.7892816662788391 -2.384185791015625e-06 L 0.5913516283035278 4.498897552490234 L 0.3203616440296173 4.539757251739502 L 1.609325408935547e-06 -2.384185791015625e-06 Z"/>
    </g>
    <g id="Path_37895" data-name="Path 37895" class="cls-1" transform="matrix(-0.574, 0.819, -0.819, -0.574, 358.52, 87.424)">
      <path class="cls-5" d="M0,0H.462L.346,2.632l-.159.024Z"/>
      <path class="cls-7" d="M 4.500150680541992e-06 -4.76837158203125e-07 L 0.461744487285614 -4.76837158203125e-07 L 0.3459544777870178 2.631959676742554 L 0.1874244809150696 2.655859708786011 L 4.500150680541992e-06 -4.76837158203125e-07 Z"/>
    </g>
    <g id="Path_37893" data-name="Path 37893" class="cls-1" transform="translate(358.674 82.779) rotate(99)">
      <path class="cls-5" d="M0,0H.444L.271,2.526l-.15.011Z"/>
      <path class="cls-6" d="M -6.258487701416016e-07 -3.337860107421875e-06 L 0.4436593651771545 -3.337860107421875e-06 L 0.2713193893432617 2.525856733322144 L 0.1217593550682068 2.537136793136597 L -6.258487701416016e-07 -3.337860107421875e-06 Z"/>
    </g>
  </g>
  <g id="Group_38348" data-name="Group 38348" transform="translate(-158 -68)">
    <path id="Path_2061" data-name="Path 2061" class="cls-2" d="M24.76-40.3v5.062H16.428V-9.03H10.156V-35.236H1.824V-40.3ZM52.4-21.976a14.8,14.8,0,0,1-.179,2.419H34.078a6.17,6.17,0,0,0,1.882,4.211,5.8,5.8,0,0,0,4.077,1.523,5.121,5.121,0,0,0,4.973-3h6.764a11.3,11.3,0,0,1-4.121,5.891,12.032,12.032,0,0,1-7.481,2.307,12.946,12.946,0,0,1-6.428-1.59,11.193,11.193,0,0,1-4.435-4.5,13.8,13.8,0,0,1-1.59-6.72A14.052,14.052,0,0,1,29.285-28.2a10.94,10.94,0,0,1,4.39-4.48,13.152,13.152,0,0,1,6.5-1.568,13.048,13.048,0,0,1,6.339,1.523A10.72,10.72,0,0,1,50.855-28.4,13.082,13.082,0,0,1,52.4-21.976Zm-6.5-1.792a4.974,4.974,0,0,0-1.747-3.875A6.19,6.19,0,0,0,39.992-29.1a5.693,5.693,0,0,0-3.92,1.411,6.2,6.2,0,0,0-1.949,3.92ZM63.242-42.18V-9.03H56.97V-42.18Zm12.454,0V-9.03H69.424V-42.18Zm29.253,20.2a14.8,14.8,0,0,1-.179,2.419H86.626a6.17,6.17,0,0,0,1.882,4.211,5.8,5.8,0,0,0,4.077,1.523,5.121,5.121,0,0,0,4.973-3h6.764a11.3,11.3,0,0,1-4.121,5.891,12.032,12.032,0,0,1-7.481,2.307,12.946,12.946,0,0,1-6.428-1.59,11.193,11.193,0,0,1-4.435-4.5,13.8,13.8,0,0,1-1.59-6.72A14.052,14.052,0,0,1,81.833-28.2a10.94,10.94,0,0,1,4.39-4.48,13.152,13.152,0,0,1,6.5-1.568,13.048,13.048,0,0,1,6.339,1.523A10.72,10.72,0,0,1,103.4-28.4,13.082,13.082,0,0,1,104.949-21.976Zm-6.5-1.792a4.974,4.974,0,0,0-1.747-3.875A6.19,6.19,0,0,0,92.54-29.1a5.693,5.693,0,0,0-3.92,1.411,6.2,6.2,0,0,0-1.949,3.92ZM115.79-30a8.818,8.818,0,0,1,3.158-3.091,8.784,8.784,0,0,1,4.457-1.12v6.585h-1.658a6.353,6.353,0,0,0-4.457,1.389q-1.5,1.389-1.5,4.838V-9.03h-6.272V-33.848h6.272ZM138.636-8.626a13.072,13.072,0,0,1-6.451-1.59,11.452,11.452,0,0,1-4.5-4.5,13.491,13.491,0,0,1-1.635-6.72,13.2,13.2,0,0,1,1.68-6.72,11.674,11.674,0,0,1,4.592-4.5,13.327,13.327,0,0,1,6.5-1.59,13.327,13.327,0,0,1,6.5,1.59,11.674,11.674,0,0,1,4.592,4.5,13.2,13.2,0,0,1,1.68,6.72,12.935,12.935,0,0,1-1.725,6.72,11.943,11.943,0,0,1-4.659,4.5A13.548,13.548,0,0,1,138.636-8.626Zm0-5.465a6.524,6.524,0,0,0,3.2-.829,6.023,6.023,0,0,0,2.4-2.486,8.378,8.378,0,0,0,.9-4.032,7.471,7.471,0,0,0-1.859-5.443,6.111,6.111,0,0,0-4.547-1.9,5.968,5.968,0,0,0-4.5,1.9,7.584,7.584,0,0,0-1.814,5.443A7.7,7.7,0,0,0,134.179-16,5.826,5.826,0,0,0,138.636-14.092Z" transform="translate(205.642 110.18)"/>
    <g id="Group_2252" data-name="Group 2252" transform="translate(158 68.412)">
      <path id="Path_2057" data-name="Path 2057" class="cls-3" d="M436.815,82.1a8.722,8.722,0,0,1,8.722,8.722v13.356a1.92,1.92,0,0,1-1.917,1.92h-4.892a1.917,1.917,0,0,1-1.917-1.917v0Z" transform="translate(-417.063 -73.368)"/>
      <path id="Path_2058" data-name="Path 2058" class="cls-4" d="M366.948,47.183a8.7,8.7,0,0,1,2.563,6.169H353.967a1.917,1.917,0,0,1-1.917-1.917V46.54a1.917,1.917,0,0,1,1.915-1.92h6.81A8.7,8.7,0,0,1,366.948,47.183Z" transform="translate(-352.05 -44.62)"/>
      <path id="Path_2059" data-name="Path 2059" class="cls-3" d="M392.038,84.623a8.69,8.69,0,0,1,6.169-2.563v22.079a1.917,1.917,0,0,1-1.915,1.92H391.4a1.917,1.917,0,0,1-1.917-1.917V90.792A8.7,8.7,0,0,1,392.038,84.623Z" transform="translate(-380.76 -73.338)"/>
      <path id="Path_2060" data-name="Path 2060" class="cls-4" d="M454.275,46.593v4.892a1.917,1.917,0,0,1-1.915,1.92H436.83a8.722,8.722,0,0,1,8.72-8.725h6.807A1.917,1.917,0,0,1,454.275,46.593Z" transform="translate(-417.079 -44.666)"/>
    </g>
  </g>
</svg>
