<svg xmlns="http://www.w3.org/2000/svg" width="20.605" height="20.605" viewBox="0 0 20.605 20.605">
    <path fill="#021668" d="M19.12 0H1.486A1.486 1.486 0 0 0 0 1.486v17.633a1.486 1.486 0 0 0 1.486 1.486H19.12a1.486 1.486 0 0 0 1.486-1.486V1.486A1.486 1.486 0 0 0 19.12 0zm-4.113 8.033q.007.152.007.306a6.683 6.683 0 0 1-6.728 6.728A6.694 6.694 0 0 1 4.661 14a4.81 4.81 0 0 0 .564.033 4.745 4.745 0 0 0 2.937-1.012 2.367 2.367 0 0 1-2.209-1.643 2.357 2.357 0 0 0 1.068-.041 2.365 2.365 0 0 1-1.9-2.318v-.03a2.348 2.348 0 0 0 1.071.3 2.367 2.367 0 0 1-.732-3.157A6.714 6.714 0 0 0 10.337 8.6a2.366 2.366 0 0 1 4.03-2.157 4.743 4.743 0 0 0 1.5-.574 2.374 2.374 0 0 1-1.04 1.308 4.716 4.716 0 0 0 1.358-.372 4.806 4.806 0 0 1-1.18 1.225zm0 0" transform="translate(0)"/>
</svg>
