<svg xmlns="http://www.w3.org/2000/svg" width="21.469" height="15.032" viewBox="0 0 21.469 15.032">
  <defs>
    <style>
      .cls-1 {
        fill: #021668;
      }
    </style>
  </defs>
  <path id="youtube" class="cls-1" d="M21.028-3.73a2.69,2.69,0,0,0-1.892-1.892c-1.68-.46-8.4-.46-8.4-.46s-6.72,0-8.4.442A2.744,2.744,0,0,0,.443-3.73,28.341,28.341,0,0,0,0,1.434,28.237,28.237,0,0,0,.443,6.6,2.69,2.69,0,0,0,2.335,8.49c1.7.46,8.4.46,8.4.46s6.72,0,8.4-.442a2.69,2.69,0,0,0,1.892-1.892,28.35,28.35,0,0,0,.442-5.164,26.9,26.9,0,0,0-.442-5.182ZM8.6,4.652V-1.785l5.588,3.219Zm0,0" transform="translate(-0.001 6.082)"/>
</svg>
