<svg id="Component_15_4" data-name="Component 15 – 4" xmlns="http://www.w3.org/2000/svg" width="245.4" height="78.941" viewBox="0 0 245.4 78.941">
  <g id="Group_38347" data-name="Group 38347" transform="translate(-154.923 -33.519)">
    <g id="Path_37891" data-name="Path 37891" transform="translate(371.977 37.268) rotate(31)" fill="#fff">
      <path d="M 2.870733261108398 31.8989200592041 L 1.060307025909424 1.000007629394531 L 4.23232364654541 1.000013589859009 L 2.988942861557007 31.89436149597168 L 2.870733261108398 31.8989200592041 Z" stroke="none"/>
      <path d="M 2.120616436004639 2.000003814697266 L 2.755306482315063 12.83238983154297 L 3.191268920898438 2.000007629394531 L 2.120616436004639 2.000003814697266 M -1.9073486328125e-06 -3.814697265625e-06 L 5.273377895355225 1.52587890625e-05 L 3.950968027114868 32.85800552368164 L 1.929778099060059 32.93594741821289 L -1.9073486328125e-06 -3.814697265625e-06 Z" stroke="none" fill="#07f"/>
    </g>
    <g id="Path_37894" data-name="Path 37894" transform="translate(335.599 34.881) rotate(-14)" fill="#fff">
      <path d="M 2.99979043006897 33.31850433349609 L 1.061768531799316 1.00000524520874 L 4.587762355804443 0.9999989867210388 L 3.25680947303772 33.30881881713867 L 2.99979043006897 33.31850433349609 Z" stroke="none"/>
      <path d="M 3.545711994171143 2 L 2.12352442741394 2.000003814697266 L 2.966569662094116 16.05864715576172 L 3.545711994171143 2 M 5.629802703857422 -3.814697265625e-06 L 4.217922687530518 34.27330780029297 L 2.060122728347778 34.35461807250977 L 2.86102294921875e-06 7.62939453125e-06 L 5.629802703857422 -3.814697265625e-06 Z" stroke="none" fill="#01e7ff"/>
    </g>
    <g id="Path_37892" data-name="Path 37892" transform="translate(395.808 61.265) rotate(75)" fill="#fff">
      <path d="M 3.015933752059937 32.03009414672852 L 1.06484854221344 1.000003099441528 L 4.232349395751953 1.000003099441528 L 3.015933752059937 32.03009414672852 Z" stroke="none"/>
      <path d="M 2.129701852798462 2.000003814697266 L 2.784275054931641 12.41034507751465 L 3.192372560501099 2.000003814697266 L 2.129701852798462 2.000003814697266 M -4.291534423828125e-06 3.814697265625e-06 L 5.272315979003906 3.814697265625e-06 L 3.950145721435547 33.72783279418945 L 2.139965772628784 34.03412246704102 L -4.291534423828125e-06 3.814697265625e-06 Z" stroke="none" fill="#01e7ff"/>
    </g>
    <g id="Path_37895" data-name="Path 37895" transform="matrix(-0.574, 0.819, -0.819, -0.574, 392.035, 108.223)" fill="#fff">
      <path d="M 2.954768657684326 31.91133308410645 L 1.063070178031921 1.000000357627869 L 4.134108066558838 1.000012278556824 L 2.954768657684326 31.91133308410645 Z" stroke="none"/>
      <path d="M 2.126146554946899 2.000003814697266 L 2.723077297210693 11.75415992736816 L 3.095221042633057 2.000007629394531 L 2.126146554946899 2.000003814697266 M 4.291534423828125e-06 -3.814697265625e-06 L 5.172984600067139 1.52587890625e-05 L 3.8757643699646 34.00107574462891 L 2.099684476852417 34.30985641479492 L 4.291534423828125e-06 -3.814697265625e-06 Z" stroke="none" fill="#01e7ff"/>
    </g>
    <g id="Path_37893" data-name="Path 37893" transform="translate(400.323 84.753) rotate(99)" fill="#fff">
      <path d="M 2.599362850189209 34.63224029541016 L 1.047219514846802 1.00000536441803 L 4.93700647354126 0.9999988675117493 L 2.731093645095825 34.62191009521484 L 2.599362850189209 34.63224029541016 Z" stroke="none"/>
      <path d="M 3.869241714477539 2 L 2.094427347183228 2.000003814697266 L 2.827324628829956 17.88060760498047 L 3.869241714477539 2 M 6.004761695861816 -3.814697265625e-06 L 3.672271490097046 35.5511589050293 L 1.648031711578369 35.70993804931641 L 1.430511474609375e-06 7.62939453125e-06 L 6.004761695861816 -3.814697265625e-06 Z" stroke="none" fill="#07f"/>
    </g>
  </g>
  <g id="Group_38348" data-name="Group 38348" transform="translate(-152.952 -36.815)">
    <path id="Path_2061" data-name="Path 2061" d="M24.76-40.3v5.062H16.428V-9.03H10.156V-35.236H1.824V-40.3ZM52.4-21.976a14.8,14.8,0,0,1-.179,2.419H34.078a6.17,6.17,0,0,0,1.882,4.211,5.8,5.8,0,0,0,4.077,1.523,5.121,5.121,0,0,0,4.973-3h6.764a11.3,11.3,0,0,1-4.121,5.891,12.032,12.032,0,0,1-7.481,2.307,12.946,12.946,0,0,1-6.428-1.59,11.193,11.193,0,0,1-4.435-4.5,13.8,13.8,0,0,1-1.59-6.72A14.052,14.052,0,0,1,29.285-28.2a10.94,10.94,0,0,1,4.39-4.48,13.152,13.152,0,0,1,6.5-1.568,13.048,13.048,0,0,1,6.339,1.523A10.72,10.72,0,0,1,50.855-28.4,13.082,13.082,0,0,1,52.4-21.976Zm-6.5-1.792a4.974,4.974,0,0,0-1.747-3.875A6.19,6.19,0,0,0,39.992-29.1a5.693,5.693,0,0,0-3.92,1.411,6.2,6.2,0,0,0-1.949,3.92ZM63.242-42.18V-9.03H56.97V-42.18Zm12.454,0V-9.03H69.424V-42.18Zm29.253,20.2a14.8,14.8,0,0,1-.179,2.419H86.626a6.17,6.17,0,0,0,1.882,4.211,5.8,5.8,0,0,0,4.077,1.523,5.121,5.121,0,0,0,4.973-3h6.764a11.3,11.3,0,0,1-4.121,5.891,12.032,12.032,0,0,1-7.481,2.307,12.946,12.946,0,0,1-6.428-1.59,11.193,11.193,0,0,1-4.435-4.5,13.8,13.8,0,0,1-1.59-6.72A14.052,14.052,0,0,1,81.833-28.2a10.94,10.94,0,0,1,4.39-4.48,13.152,13.152,0,0,1,6.5-1.568,13.048,13.048,0,0,1,6.339,1.523A10.72,10.72,0,0,1,103.4-28.4,13.082,13.082,0,0,1,104.949-21.976Zm-6.5-1.792a4.974,4.974,0,0,0-1.747-3.875A6.19,6.19,0,0,0,92.54-29.1a5.693,5.693,0,0,0-3.92,1.411,6.2,6.2,0,0,0-1.949,3.92ZM115.79-30a8.818,8.818,0,0,1,3.158-3.091,8.784,8.784,0,0,1,4.457-1.12v6.585h-1.658a6.353,6.353,0,0,0-4.457,1.389q-1.5,1.389-1.5,4.838V-9.03h-6.272V-33.848h6.272ZM138.636-8.626a13.072,13.072,0,0,1-6.451-1.59,11.452,11.452,0,0,1-4.5-4.5,13.491,13.491,0,0,1-1.635-6.72,13.2,13.2,0,0,1,1.68-6.72,11.674,11.674,0,0,1,4.592-4.5,13.327,13.327,0,0,1,6.5-1.59,13.327,13.327,0,0,1,6.5,1.59,11.674,11.674,0,0,1,4.592,4.5,13.2,13.2,0,0,1,1.68,6.72,12.935,12.935,0,0,1-1.725,6.72,11.943,11.943,0,0,1-4.659,4.5A13.548,13.548,0,0,1,138.636-8.626Zm0-5.465a6.524,6.524,0,0,0,3.2-.829,6.023,6.023,0,0,0,2.4-2.486,8.378,8.378,0,0,0,.9-4.032,7.471,7.471,0,0,0-1.859-5.443,6.111,6.111,0,0,0-4.547-1.9,5.968,5.968,0,0,0-4.5,1.9,7.584,7.584,0,0,0-1.814,5.443A7.7,7.7,0,0,0,134.179-16,5.826,5.826,0,0,0,138.636-14.092Z" transform="translate(205.642 110.18)" fill="#021668"/>
    <g id="Group_2252" data-name="Group 2252" transform="matrix(0.914, -0.407, 0.407, 0.914, 152.952, 80.391)">
      <path id="Path_2057" data-name="Path 2057" d="M436.815,82.1a8.722,8.722,0,0,1,8.722,8.722v13.356a1.92,1.92,0,0,1-1.917,1.92h-4.892a1.917,1.917,0,0,1-1.917-1.917v0Z" transform="translate(-417.063 -73.368)" fill="#07f"/>
      <path id="Path_2058" data-name="Path 2058" d="M366.948,47.183a8.7,8.7,0,0,1,2.563,6.169H353.967a1.917,1.917,0,0,1-1.917-1.917V46.54a1.917,1.917,0,0,1,1.915-1.92h6.81A8.7,8.7,0,0,1,366.948,47.183Z" transform="translate(-352.05 -44.62)" fill="#01e7ff"/>
      <path id="Path_2059" data-name="Path 2059" d="M392.038,84.623a8.69,8.69,0,0,1,6.169-2.563v22.079a1.917,1.917,0,0,1-1.915,1.92H391.4a1.917,1.917,0,0,1-1.917-1.917V90.792A8.7,8.7,0,0,1,392.038,84.623Z" transform="translate(-380.76 -73.338)" fill="#07f"/>
      <path id="Path_2060" data-name="Path 2060" d="M454.275,46.593v4.892a1.917,1.917,0,0,1-1.915,1.92H436.83a8.722,8.722,0,0,1,8.72-8.725h6.807A1.917,1.917,0,0,1,454.275,46.593Z" transform="translate(-417.079 -44.666)" fill="#01e7ff"/>
    </g>
  </g>
</svg>
